<svg width="260" height="71" viewBox="0 0 260 71" fill="none" xmlns="http://www.w3.org/2000/svg">
    <path
        d="M13.2955 70H33.6137L40.9773 41.9091H41.5228L48.8864 70H69.2046L82.2955 17.6364H63.4773L57.75 49.2727H57.341L50.3864 17.6364H32.1137L25.4319 49.5455H25.0228L19.0228 17.6364H0.20459L13.2955 70Z"
        fill="#6ABDF9" />
    <path
        d="M112.313 70.9546C129.358 70.9546 139.449 60.0455 139.449 43.9546C139.449 27.8636 129.358 16.9546 112.313 16.9546C95.2671 16.9546 85.1762 27.8636 85.1762 43.9546C85.1762 60.0455 95.2671 70.9546 112.313 70.9546ZM112.449 57.0455C107.403 57.0455 104.403 52.0341 104.403 43.8182C104.403 35.6023 107.403 30.5909 112.449 30.5909C117.222 30.5909 120.222 35.6023 120.222 43.8182C120.222 52.0341 117.222 57.0455 112.449 57.0455Z"
        fill="#6ABDF9" />
    <path
        d="M147.085 70H165.903V55.1364L168.733 51.5568L179.403 70H200.949L182.608 40.5796L200.403 17.6364H179.267L166.585 35.2273H165.903V0.181824H147.085V70Z"
        fill="#6ABDF9" />
    <path
        d="M205.304 70H224.122V55.1364L226.952 51.5568L237.622 70H259.168L240.827 40.5796L258.622 17.6364H237.486L224.804 35.2273H224.122V0.181824H205.304V70Z"
        fill="#6ABDF9" />
</svg>